<svg xmlns="http://www.w3.org/2000/svg" viewBox="0 0 128 96">
  <defs>
    <radialGradient id="body" cx="34%" cy="30%" r="74%">
      <stop offset="0%" stop-color="#fff0a6"/>
      <stop offset="50%" stop-color="#f6c93d"/>
      <stop offset="100%" stop-color="#d18900"/>
    </radialGradient>
    <linearGradient id="wing" x1="0%" y1="0%" x2="100%" y2="100%">
      <stop offset="0%" stop-color="#f8fbff" stop-opacity=".95"/>
      <stop offset="100%" stop-color="#abc3da" stop-opacity=".76"/>
    </linearGradient>
  </defs>
  <ellipse cx="61" cy="79" rx="27" ry="7" fill="#1b1209" opacity=".16"/>
  <ellipse cx="58" cy="48" rx="33" ry="24" fill="url(#body)" stroke="#6b4307" stroke-width="3"/>
  <path d="M35 36C26 28 21 18 29 13C40 7 54 12 62 26C52 25 41 29 35 36Z" fill="url(#wing)" stroke="#8ea7bc" stroke-width="2"/>
  <path d="M55 29C61 17 77 10 87 17C94 21 93 30 85 37C76 31 65 28 55 29Z" fill="url(#wing)" stroke="#8ea7bc" stroke-width="2"/>
  <ellipse cx="58" cy="48" rx="33" ry="24" fill="none" stroke="#5a380a" stroke-width="3"/>
  <path d="M36 27L44 16" stroke="#53320b" stroke-width="3" stroke-linecap="round"/>
  <circle cx="46" cy="15" r="4" fill="#e4b149" stroke="#6b4307" stroke-width="2"/>
  <path d="M46 24L54 12" stroke="#53320b" stroke-width="3" stroke-linecap="round"/>
  <circle cx="56" cy="11" r="4" fill="#e4b149" stroke="#6b4307" stroke-width="2"/>
  <path d="M38 26H49V70H38Z" fill="#3e2510" opacity=".82"/>
  <path d="M59 24H69V70H59Z" fill="#3e2510" opacity=".82"/>
  <path d="M80 27H90V66H80Z" fill="#3e2510" opacity=".82"/>
  <path d="M88 44L111 49L88 58C91 54 91 49 88 44Z" fill="#2b1807"/>
  <circle cx="75" cy="39" r="8" fill="#1c0f08"/>
  <circle cx="76.8" cy="36.8" r="2.5" fill="#fff"/>
  <circle cx="73.1" cy="42.7" r="1.2" fill="#fff" opacity=".7"/>
  <ellipse cx="74" cy="54" rx="7.6" ry="4.6" fill="#ffb6a0" opacity=".28"/>
</svg>
